<?xml version="1.0" standalone="no"?>
<!DOCTYPE svg PUBLIC "-//W3C//DTD SVG 20010904//EN"
 "http://www.w3.org/TR/2001/REC-SVG-20010904/DTD/svg10.dtd">
<svg version="1.0" xmlns="http://www.w3.org/2000/svg"
 width="44.000000pt" height="44.000000pt" viewBox="0 0 44.000000 44.000000"
 preserveAspectRatio="xMidYMid meet">
<metadata>
Created by potrace 1.15, written by Peter Selinger 2001-2017
</metadata>
<g transform="translate(0.000000,44.000000) scale(0.100000,-0.100000)"
fill="#000000" stroke="none">
<path d="M0 220 l0 -220 220 0 220 0 0 220 0 220 -220 0 -220 0 0 -220z m180
73 l1 -58 54 58 c38 42 59 58 75 55 19 -3 16 -8 -24 -54 l-45 -51 40 -54 c61
-81 64 -89 37 -89 -16 0 -33 15 -58 51 -18 28 -38 53 -43 56 -15 9 -36 -31
-37 -69 0 -34 -3 -38 -25 -38 l-25 0 0 125 0 125 25 0 c24 0 25 -3 25 -57z"/>
</g>
</svg>
